<svg width="232.367920" height="249.443588" viewBox="0 0 232.368 249.444" fill="none" xmlns="http://www.w3.org/2000/svg" xmlns:xlink="http://www.w3.org/1999/xlink">
	<desc>
			Created with Pixso.
	</desc>
	<defs>
		<filter id="filter_84_201_dd" x="37.000000" y="58.000000" width="195.367920" height="191.443588" filterUnits="userSpaceOnUse" color-interpolation-filters="sRGB">
			<feFlood flood-opacity="0" result="BackgroundImageFix"/>
			<feColorMatrix in="SourceAlpha" type="matrix" values="0 0 0 0 0 0 0 0 0 0 0 0 0 0 0 0 0 0 127 0" result="hardAlpha"/>
			<feOffset dx="0" dy="4"/>
			<feGaussianBlur stdDeviation="3.33333"/>
			<feComposite in2="hardAlpha" operator="out" k2="-1" k3="1"/>
			<feColorMatrix type="matrix" values="0 0 0 0 0 0 0 0 0 0 0 0 0 0 0 0 0 0 0.25 0"/>
			<feBlend mode="normal" in2="BackgroundImageFix" result="effect_dropShadow_1"/>
			<feBlend mode="normal" in="SourceGraphic" in2="effect_dropShadow_1" result="shape"/>
		</filter>
	</defs>
	<circle cx="85.500000" cy="85.500000" r="85.500000" fill="#FFFFFF" fill-opacity="1.000000"/>
	<ellipse cx="85.500000" cy="83.000000" rx="77.500000" ry="51.000000" fill="#1C1C1C" fill-opacity="1.000000"/>
	<path d="M113 46C141.833 57.1667 183.5 87.1 119.5 117.5C134.5 105.833 154.2 75.2 113 46Z" fill="#666666" fill-opacity="1.000000" fill-rule="evenodd"/>
	<g filter="url(#filter_84_201_dd)">
		<rect x="163.813477" y="98.168030" width="37.000000" height="112.000000" transform="rotate(47.6731 163.813477 98.168030)" fill="#D8D8D8" fill-opacity="1.000000"/>
		<rect x="139.534180" y="102.697449" rx="8.500000" width="17.000000" height="104.000000" transform="rotate(47.6731 139.534180 102.697449)" fill="#FD9B40" fill-opacity="1.000000"/>
		<rect x="170.508545" y="136.705933" rx="8.500000" width="17.000000" height="104.000000" transform="rotate(47.6731 170.508545 136.705933)" fill="#FD9B40" fill-opacity="1.000000"/>
		<path d="M186.679 93.5709L163.363 98.4161L188.439 125.948L195.435 103.185L186.679 93.5709Z" clip-rule="evenodd" fill="#D8D8D8" fill-opacity="1.000000" fill-rule="evenodd"/>
		<path d="M75.4116 161.497L49.9575 163.994L81.6055 198.742L86.4634 173.631L75.4116 161.497Z" clip-rule="evenodd" fill="#5C5C5C" fill-opacity="1.000000" fill-rule="evenodd"/>
		<path d="M106.386 195.505L80.9321 198.002L112.58 232.75L117.438 207.64L106.386 195.505Z" clip-rule="evenodd" fill="#5C5C5C" fill-opacity="1.000000" fill-rule="evenodd"/>
		<path d="M89.1697 182.543L65.8542 187.388L90.9297 214.919L97.926 192.157L89.1697 182.543Z" clip-rule="evenodd" fill="#505050" fill-opacity="1.000000" fill-rule="evenodd"/>
		<rect x="167.180176" y="101.864594" rx="5.000000" width="17.000000" height="23.000000" transform="rotate(47.6731 167.180176 101.864594)" fill="#E9E9E9" fill-opacity="1.000000"/>
	</g>
</svg>
