<svg width="225.492188" height="282.101562" viewBox="0 0 225.492 282.102" fill="none" xmlns="http://www.w3.org/2000/svg" xmlns:xlink="http://www.w3.org/1999/xlink">
	<desc>
			Created with Pixso.
	</desc>
	<defs>
		<filter id="filter_84_213_dd" x="17.614746" y="55.615784" width="207.877441" height="226.485779" filterUnits="userSpaceOnUse" color-interpolation-filters="sRGB">
			<feFlood flood-opacity="0" result="BackgroundImageFix"/>
			<feColorMatrix in="SourceAlpha" type="matrix" values="0 0 0 0 0 0 0 0 0 0 0 0 0 0 0 0 0 0 127 0" result="hardAlpha"/>
			<feOffset dx="0" dy="4"/>
			<feGaussianBlur stdDeviation="3.33333"/>
			<feComposite in2="hardAlpha" operator="out" k2="-1" k3="1"/>
			<feColorMatrix type="matrix" values="0 0 0 0 0 0 0 0 0 0 0 0 0 0 0 0 0 0 0.25 0"/>
			<feBlend mode="normal" in2="BackgroundImageFix" result="effect_dropShadow_1"/>
			<feBlend mode="normal" in="SourceGraphic" in2="effect_dropShadow_1" result="shape"/>
		</filter>
	</defs>
	<circle cx="85.500000" cy="85.500000" r="85.500000" fill="#FFFFFF" fill-opacity="1.000000"/>
	<ellipse cx="85.500000" cy="86.000000" rx="77.500000" ry="51.000000" fill="#1C1C1C" fill-opacity="1.000000"/>
	<path d="M113 46C141.833 57.1667 183.5 87.1 119.5 117.5C134.5 105.833 154.2 75.2 113 46Z" fill="#666666" fill-opacity="1.000000" fill-rule="evenodd"/>
	<g filter="url(#filter_84_213_dd)">
		<path d="M137.38 141.314C132.554 134.51 125.948 129.733 118.694 127.191C110.896 124.442 102.865 124.425 95.6216 126.633C87.8267 128.994 81.4387 133.744 76.9727 139.86C72.1575 146.428 69.8523 154.131 69.8699 161.818C69.8738 170.086 72.5317 177.799 77.022 184.126L107.201 162.72L137.38 141.314Z" fill="#FF6712" fill-opacity="1.000000" fill-rule="evenodd"/>
		<path d="M161.947 152.072C166.8 158.855 169.157 166.66 169.19 174.347C169.241 182.614 166.633 190.21 162.18 196.335C157.402 202.931 150.826 207.417 143.586 209.64C135.805 212.045 127.772 211.707 120.512 209.179C112.7 206.474 106.279 201.443 101.765 195.132L131.856 173.602L161.947 152.072Z" fill="#50CDE9" fill-opacity="1.000000" fill-rule="evenodd"/>
		<path d="M168.66 169.521C165.733 170.774 159.137 172.734 156.171 170.542C152.464 167.802 140.381 167.909 141.603 175.016L144.954 174.862C144.938 176.132 144.864 178.761 144.702 179.127C144.499 179.584 141.352 179.281 142.114 181.26C142.724 182.844 142.573 186.388 142.421 187.961C140.984 189.147 138.331 191.507 139.225 191.466C140.342 191.415 149.528 186.74 152.373 190.191C154.648 192.951 154.238 198.313 153.749 200.648L154.816 204.404C161.228 199.409 172.972 185.439 168.66 169.521Z" fill="#53A265" fill-opacity="1.000000" fill-rule="evenodd"/>
		<path d="M121.097 181.778C120.488 183.149 120.174 186.073 123.79 186.802C127.404 187.532 128.241 189.508 128.208 190.405L126.585 194.061L119.935 195.485L116.587 200.564L118.417 206.3C113.762 204.051 104.534 198.386 104.856 193.715L121.097 181.778Z" fill="#7CB84D" fill-opacity="1.000000" fill-rule="evenodd"/>
		<path d="M51.2778 214.432L116.206 145.639L126.885 161.955L195.076 117.321L129.601 185.276L119.469 169.797L51.2778 214.432Z" fill="#FD9B40" fill-opacity="1.000000" fill-rule="evenodd"/>
	</g>
</svg>
